<?xml version="1.0" encoding="UTF-8"?>
<svg width="1920" height="1080" viewBox="0 0 1920 1080" xmlns="http://www.w3.org/2000/svg">
    <!-- Fond de papier ancien -->
    <defs>
        <pattern id="paper-texture" x="0" y="0" width="100" height="100" patternUnits="userSpaceOnUse">
            <rect width="100" height="100" fill="#d4bc94"/>
            <filter id="noise" x="0" y="0">
                <feTurbulence type="fractalNoise" baseFrequency="0.8" numOctaves="4" stitchTiles="stitch"/>
                <feColorMatrix type="saturate" values="0.1"/>
            </filter>
            <rect width="100" height="100" filter="url(#noise)" opacity="0.1"/>
        </pattern>
    </defs>
    
    <!-- Fond principal -->
    <rect width="100%" height="100%" fill="url(#paper-texture)"/>
    
    <!-- Grille de la carte -->
    <g stroke="#8b4513" stroke-width="0.5" opacity="0.3">
        <path d="M0,0 h1920 M0,60 h1920 M0,120 h1920" transform="translate(0,0) rotate(0)"/>
        <path d="M0,0 v1080 M60,0 v1080 M120,0 v1080" transform="translate(0,0) rotate(0)"/>
    </g>
    
    <!-- Éléments décoratifs de la carte -->
    <g fill="#8b4513" opacity="0.4">
        <circle cx="480" cy="270" r="5"/>
        <circle cx="960" cy="540" r="8"/>
        <circle cx="1440" cy="810" r="5"/>
        <path d="M480,270 Q720,405 960,540 Q1200,675 1440,810" fill="none" stroke="#8b4513" stroke-width="2" stroke-dasharray="5,5"/>
    </g>
    
    <!-- Boussole -->
    <g transform="translate(100,100)">
        <circle cx="0" cy="0" r="40" fill="none" stroke="#8b4513" stroke-width="2"/>
        <path d="M0,-35 L5,-5 L-5,-5 Z" fill="#8b4513"/> <!-- Nord -->
        <path d="M35,0 L5,5 L5,-5 Z" fill="#8b4513"/> <!-- Est -->
        <path d="M0,35 L-5,5 L5,5 Z" fill="#8b4513"/> <!-- Sud -->
        <path d="M-35,0 L-5,-5 L-5,5 Z" fill="#8b4513"/> <!-- Ouest -->
        <text x="0" y="-20" fill="#8b4513" text-anchor="middle" font-family="serif" font-size="12">N</text>
        <text x="20" y="0" fill="#8b4513" text-anchor="middle" font-family="serif" font-size="12">E</text>
        <text x="0" y="25" fill="#8b4513" text-anchor="middle" font-family="serif" font-size="12">S</text>
        <text x="-20" y="0" fill="#8b4513" text-anchor="middle" font-family="serif" font-size="12">O</text>
    </g>
</svg>
