<?xml version="1.0" encoding="UTF-8"?>
<svg width="60" height="60" viewBox="0 0 60 60" fill="none" xmlns="http://www.w3.org/2000/svg">
    <!-- Pièce de puzzle -->
    <path d="M15 20C15 17.5 17.5 15 20 15H25V10C25 7.5 27.5 5 30 5C32.5 5 35 7.5 35 10V15H40C42.5 15 45 17.5 45 20V25H50C52.5 25 55 27.5 55 30C55 32.5 52.5 35 50 35H45V40C45 42.5 42.5 45 40 45H35V50C35 52.5 32.5 55 30 55C27.5 55 25 52.5 25 50V45H20C17.5 45 15 42.5 15 40V35H10C7.5 35 5 32.5 5 30C5 27.5 7.5 25 10 25H15V20Z" fill="#EAB308"/>
    
    <!-- Détails -->
    <circle cx="30" cy="30" r="8" fill="#1F2937"/>
</svg>
