<?xml version="1.0" encoding="UTF-8"?>
<svg width="1920" height="1080" viewBox="0 0 1920 1080" xmlns="http://www.w3.org/2000/svg">
    <!-- Définitions -->
    <defs>
        <!-- Motif de vagues -->
        <pattern id="wave-pattern" x="0" y="0" width="200" height="20" patternUnits="userSpaceOnUse">
            <path d="M0,10 Q50,0 100,10 Q150,20 200,10" fill="none" stroke="#2980b9" stroke-width="2"/>
        </pattern>
        
        <!-- Texture de bois -->
        <pattern id="wood-texture" x="0" y="0" width="100" height="100" patternUnits="userSpaceOnUse">
            <rect width="100" height="100" fill="#8b4513"/>
            <filter id="wood-grain">
                <feTurbulence type="fractalNoise" baseFrequency="0.8" numOctaves="4"/>
                <feColorMatrix type="saturate" values="0.1"/>
            </filter>
            <rect width="100" height="100" filter="url(#wood-grain)" opacity="0.1"/>
        </pattern>
    </defs>
    
    <!-- Ciel -->
    <rect width="100%" height="50%" fill="#87CEEB"/>
    
    <!-- Mer -->
    <rect y="50%" width="100%" height="50%" fill="#2980b9"/>
    <rect y="50%" width="100%" height="50%" fill="url(#wave-pattern)" opacity="0.3"/>
    
    <!-- Navire -->
    <g transform="translate(960,540)">
        <!-- Coque -->
        <path d="M-200,0 Q-180,-50 0,-50 Q180,-50 200,0 L220,50 L-220,50 Z" 
              fill="url(#wood-texture)"/>
        
        <!-- Mât principal -->
        <rect x="-10" y="-200" width="20" height="150" fill="url(#wood-texture)"/>
        
        <!-- Voile principale -->
        <path d="M-100,-180 Q0,-220 100,-180 L80,-80 L-80,-80 Z" 
              fill="#ECF0F1" opacity="0.9"/>
        
        <!-- Détails -->
        <g stroke="#8b4513" stroke-width="2" fill="none">
            <!-- Cordages -->
            <line x1="-100" y1="-180" x2="0" y2="-50"/>
            <line x1="100" y1="-180" x2="0" y2="-50"/>
            <!-- Rambarde -->
            <path d="M-200,0 L-220,50 M-150,0 L-170,50 M-100,0 L-120,50 
                     M-50,0 L-70,50 M0,0 L-20,50 M50,0 L30,50 
                     M100,0 L80,50 M150,0 L130,50 M200,0 L180,50"/>
        </g>
        
        <!-- Drapeau pirate -->
        <g transform="translate(0,-220)">
            <rect x="-20" y="-30" width="40" height="30" fill="#2c3e50"/>
            <path d="M-10,-25 L0,-15 L10,-25 M-5,-20 L0,-10 L5,-20" 
                  stroke="#ECF0F1" stroke-width="2" fill="none"/>
        </g>
    </g>
</svg>
