<?xml version="1.0" encoding="UTF-8"?>
<svg width="1920" height="1080" viewBox="0 0 1920 1080" xmlns="http://www.w3.org/2000/svg">
    <!-- Fond de parchemin -->
    <defs>
        <pattern id="parchment" x="0" y="0" width="100" height="100" patternUnits="userSpaceOnUse">
            <rect width="100" height="100" fill="#f4d03f"/>
            <filter id="noise">
                <feTurbulence type="fractalNoise" baseFrequency="0.8" numOctaves="4"/>
                <feColorMatrix type="saturate" values="0.1"/>
            </filter>
            <rect width="100" height="100" filter="url(#noise)" opacity="0.1"/>
        </pattern>
        
        <!-- Style de ligne pointillée -->
        <pattern id="dotted-path" x="0" y="0" width="20" height="20" patternUnits="userSpaceOnUse">
            <circle cx="10" cy="10" r="2" fill="#8b4513"/>
        </pattern>
    </defs>
    
    <!-- Fond principal -->
    <rect width="100%" height="100%" fill="url(#parchment)"/>
    
    <!-- Îles et points de repère -->
    <g fill="#8b4513">
        <!-- Île 1 -->
        <path d="M300,200 Q350,150 400,200 Q450,250 400,300 Q350,350 300,300 Q250,250 300,200 Z" opacity="0.6"/>
        <!-- Île 2 -->
        <path d="M1500,800 Q1550,750 1600,800 Q1650,850 1600,900 Q1550,950 1500,900 Q1450,850 1500,800 Z" opacity="0.6"/>
    </g>
    
    <!-- Chemin du trésor -->
    <path d="M300,250 Q600,400 960,540 Q1320,680 1600,850" 
          stroke="url(#dotted-path)" stroke-width="4" fill="none"/>
    
    <!-- Points d'énigme -->
    <g>
        <circle cx="300" cy="250" r="10" fill="#c0392b"/>
        <circle cx="600" cy="400" r="10" fill="#c0392b"/>
        <circle cx="960" cy="540" r="10" fill="#c0392b"/>
        <circle cx="1320" cy="680" r="10" fill="#c0392b"/>
        <circle cx="1600" cy="850" r="15" fill="#e74c3c"/> <!-- Point final -->
    </g>
    
    <!-- Boussole -->
    <g transform="translate(1800,100)">
        <circle cx="0" cy="0" r="50" fill="none" stroke="#8b4513" stroke-width="2"/>
        <path d="M0,-45 L10,-10 L-10,-10 Z" fill="#8b4513"/>
        <text x="0" y="-25" fill="#8b4513" text-anchor="middle" font-family="serif" font-size="16">N</text>
        <text x="25" y="5" fill="#8b4513" text-anchor="middle" font-family="serif" font-size="16">E</text>
        <text x="0" y="35" fill="#8b4513" text-anchor="middle" font-family="serif" font-size="16">S</text>
        <text x="-25" y="5" fill="#8b4513" text-anchor="middle" font-family="serif" font-size="16">O</text>
    </g>
    
    <!-- Légende -->
    <g transform="translate(100,900)">
        <text x="0" y="0" fill="#8b4513" font-family="serif" font-size="24">Légende:</text>
        <circle cx="20" cy="30" r="10" fill="#c0392b"/>
        <text x="40" y="35" fill="#8b4513" font-family="serif" font-size="16">Point d'énigme</text>
        <circle cx="20" cy="60" r="15" fill="#e74c3c"/>
        <text x="40" y="65" fill="#8b4513" font-family="serif" font-size="16">Trésor final</text>
    </g>
</svg>
