<?xml version="1.0" encoding="UTF-8"?>
<svg width="400" height="400" viewBox="0 0 400 400" xmlns="http://www.w3.org/2000/svg">
    <!-- Fond -->
    <rect width="400" height="400" fill="#f4d03f" opacity="0.1"/>
    
    <!-- Coffre -->
    <path d="M100 150 L300 150 L320 300 L80 300 Z" fill="#8b4513"/> <!-- Corps -->
    <path d="M80 300 L320 300 L300 350 L100 350 Z" fill="#6d4c41"/> <!-- Base -->
    
    <!-- Couvercle -->
    <path d="M90 150 Q200 100 310 150 L300 180 Q200 130 100 180 Z" fill="#6d4c41"/>
    
    <!-- Décorations métalliques -->
    <path d="M100 200 L300 200 M100 250 L300 250" 
          stroke="#f4d03f" stroke-width="5" fill="none"/>
    
    <!-- Serrure -->
    <circle cx="200" cy="175" r="15" fill="#f4d03f"/>
    <rect x="195" y="165" width="10" height="20" fill="#2c3e50"/>
    
    <!-- Coins métalliques -->
    <circle cx="110" cy="160" r="8" fill="#f4d03f"/>
    <circle cx="290" cy="160" r="8" fill="#f4d03f"/>
    <circle cx="110" cy="290" r="8" fill="#f4d03f"/>
    <circle cx="290" cy="290" r="8" fill="#f4d03f"/>
    
    <!-- Reflets -->
    <path d="M120 170 L280 170" stroke="#ffffff" stroke-width="2" opacity="0.3"/>
    <path d="M130 220 L270 220" stroke="#ffffff" stroke-width="2" opacity="0.3"/>
    
    <!-- Pièces d'or qui dépassent -->
    <circle cx="150" cy="140" r="10" fill="#f4d03f"/>
    <circle cx="170" cy="135" r="10" fill="#f4d03f"/>
    <circle cx="190" cy="138" r="10" fill="#f4d03f"/>
</svg>
