<?xml version="1.0" encoding="UTF-8"?>
<svg width="800px" height="800px" viewBox="0 0 24 24" version="1.1" xmlns="http://www.w3.org/2000/svg">
    <g stroke="none" stroke-width="1" fill="none" fill-rule="evenodd">
        <path d="M20,19 L20,21 L4,21 L4,19 L20,19 Z M14.974,3.338 C15.18,3.112 15.513,3 15.857,3 C16.201,3 16.534,3.112 16.74,3.338 L19.708,6.63 C19.896,6.837 20,7.108 20,7.389 L20,17 L14,17 L14,9 L10,9 L10,17 L4,17 L4,7.389 C4,7.108 4.104,6.837 4.292,6.63 L7.26,3.338 C7.466,3.112 7.799,3 8.143,3 C8.487,3 8.82,3.112 9.026,3.338 L12,6.683 L14.974,3.338 Z" fill="#fcd34d"/>
        <!-- Ajout des symboles mystérieux -->
        <text x="7" y="13" fill="#fcd34d" font-size="2">◊□○△</text>
        <text x="13" y="13" fill="#fcd34d" font-size="2">☆⬡⬢⬣</text>
        <!-- Ajout de la boussole stylisée -->
        <circle cx="17" cy="7" r="1.5" stroke="#fcd34d" fill="none"/>
        <path d="M17,5.5 L17,8.5 M15.5,7 L18.5,7" stroke="#fcd34d" stroke-width="0.5"/>
        <!-- Ajout de lignes pointillées pour le chemin -->
        <path d="M8,11 Q12,15 16,11" stroke="#fcd34d" stroke-width="0.5" stroke-dasharray="1,1"/>
    </g>
</svg>
