<?xml version="1.0" encoding="UTF-8"?>
<svg width="400" height="400" viewBox="0 0 400 400" xmlns="http://www.w3.org/2000/svg">
    <!-- Fond -->
    <rect width="400" height="400" fill="#2c3e50" opacity="0.1"/>
    
    <!-- Corps du perroquet -->
    <path d="M200 150 Q300 150 300 250 Q300 350 200 350 Q100 350 100 250 Q100 150 200 150" 
          fill="#e74c3c"/>
    
    <!-- Aile -->
    <path d="M200 200 Q250 200 280 250 Q250 300 200 250 Z" 
          fill="#c0392b"/>
    
    <!-- Tête -->
    <circle cx="200" cy="150" r="50" fill="#e74c3c"/>
    
    <!-- Bec -->
    <path d="M180 140 L220 140 L200 170 Z" fill="#f1c40f"/>
    
    <!-- Œil -->
    <circle cx="190" cy="130" r="10" fill="white"/>
    <circle cx="190" cy="130" r="5" fill="#2c3e50"/>
    
    <!-- Plumes décoratives -->
    <path d="M180 100 Q200 80 220 100" stroke="#c0392b" stroke-width="4" fill="none"/>
    <path d="M170 110 Q200 90 230 110" stroke="#c0392b" stroke-width="4" fill="none"/>
    
    <!-- Patte -->
    <path d="M180 350 L160 380 M180 350 L180 380 M180 350 L200 380" 
          stroke="#f1c40f" stroke-width="4" fill="none"/>
</svg>
