<?xml version="1.0" encoding="UTF-8"?>
<svg width="400" height="400" viewBox="0 0 400 400" xmlns="http://www.w3.org/2000/svg">
    <!-- Fond -->
    <rect width="400" height="400" fill="#2c3e50" opacity="0.1"/>
    
    <!-- Vagues -->
    <path d="M0 300 Q50 280 100 300 Q150 320 200 300 Q250 280 300 300 Q350 320 400 300" 
          fill="none" stroke="#3498db" stroke-width="2" opacity="0.5"/>
    <path d="M0 320 Q50 300 100 320 Q150 340 200 320 Q250 300 300 320 Q350 340 400 320" 
          fill="none" stroke="#3498db" stroke-width="2" opacity="0.5"/>
    
    <!-- Coque du navire -->
    <path d="M100 250 Q200 300 300 250 L280 300 Q200 350 120 300 Z" 
          fill="#8b4513"/>
    
    <!-- Mât principal -->
    <line x1="200" y1="100" x2="200" y2="250" stroke="#8b4513" stroke-width="10"/>
    
    <!-- Voiles -->
    <path d="M190 100 Q200 50 300 100 Q200 150 190 100" fill="#f4d03f" opacity="0.9"/>
    <path d="M210 150 Q220 100 320 150 Q220 200 210 150" fill="#f4d03f" opacity="0.7"/>
    
    <!-- Drapeau pirate -->
    <rect x="180" y="60" width="40" height="30" fill="#2c3e50"/>
    <text x="190" y="82" fill="#ffffff" font-size="20">☠</text>
    
    <!-- Détails -->
    <circle cx="250" cy="270" r="5" fill="#2c3e50"/> <!-- Hublot -->
    <circle cx="280" cy="270" r="5" fill="#2c3e50"/> <!-- Hublot -->
    
    <!-- Cordages -->
    <path d="M200 100 L150 250 M200 100 L250 250" 
          stroke="#8b4513" stroke-width="2" fill="none"/>
</svg>
